<svg xmlns="http://www.w3.org/2000/svg" width="960" height="587" viewBox="0 0 960 587" role="img" aria-labelledby="title desc"><title id="title">RC transmitter · Mode 2</title><desc id="desc">Stick functions after mapping. Receiver channels are separate from the radio’s menu buttons.</desc><defs><marker id="arrow" markerWidth="9" markerHeight="9" refX="7" refY="4" orient="auto-start-reverse"><path d="M0 0 8 4 0 8" fill="none" stroke="#b2bccb" stroke-width="1.5"/></marker></defs><style>text{font-family:Arial,Helvetica,sans-serif}.controller-shell{fill:#30343b;stroke:#9ba0ab;stroke-width:1.2}.controller-well{fill:#11141a;stroke:#555d69;stroke-width:1.2}.controller-thumb{fill:#404754;stroke:#949caa}.thumb-inset{fill:#252b34;stroke:#697181}.controller-grip{fill:#222832;stroke:#48505e}.controller-outline{fill:none;stroke:#adb4bf;stroke-width:3;stroke-linecap:round}.controller-detail,.thumb-center{fill:none;stroke:#929aa8;stroke-width:1}.gimbal-guide{stroke:#69717d;stroke-width:.6}.controller-screen{fill:#141921;stroke:#858c99}.screen-lines{stroke:#82928c;stroke-width:1.5}.device-led{fill:#b5d1a3}.controller-glyph{font-size:9px;fill:#f4f4f6;text-anchor:middle}.controller-channel-label{font-size:7px;fill:#b5bac4;text-anchor:middle}.controller-caption{display:none}.keyboard-body{fill:#101319;stroke:#414956}.keyboard-key rect{fill:#1b2028;stroke:#3b4350}.keyboard-key text{text-anchor:middle}.key-letter{font-size:12px;fill:#7e8795}.key-function{font-size:7.5px;fill:#e4e9f0}.mapped .key-letter{fill:#fff}.mapped.flight rect{fill:#273e49;stroke:#7fa7b9}.mapped.power rect{fill:#4b3e29;stroke:#d1b479}.mapped.session rect{fill:#354336;stroke:#8ab193}.mapped.view rect{fill:#3f364c;stroke:#ac97c6}</style><rect width="960" height="587" rx="16" fill="#111419"/><text x="32" y="42" font-size="26" fill="#f1f2f5" text-anchor="start">RC transmitter · Mode 2</text><text x="32" y="69" font-size="14" fill="#a1a5b0" text-anchor="start">Stick functions after mapping. Receiver channels are separate from the radio’s menu buttons.</text><g class="controller" transform="translate(240 135) scale(1.2)"><path d="M190 33V8q0-5 5-5h10q5 0 5 5v25" class="controller-shell"/>
      <path d="M137 38V24h126v14" class="controller-outline"/>
      <path d="M95 37h210l27 34-8 142-26 21H102l-26-21-8-142Z" class="controller-shell"/>
      <path d="m78 91 17-12v113l-13-5m240-96-17-12v113l13-5" class="controller-grip"/>
      <path d="M96 63h208M92 193h216" class="controller-detail"/>
      <path d="M105 47V24m28 21V17m134 28V17m28 30V24" class="controller-outline"/>
      <path d="M100 24h10m18-7h10m124 0h10m18 7h10" class="controller-detail"/>
      <text x="128" y="62" class="controller-channel-label">YAW / POWER</text><text x="272" y="62" class="controller-channel-label">ROLL / PITCH</text>
      <g><circle cx="128" cy="112" r="43" class="controller-well"/><circle cx="128" cy="112" r="36" class="controller-detail"/>
    <path d="M96 112h64M128 80v64" class="gimbal-guide"/>
    <g data-pad-stick="0" data-stick-x="128" data-stick-y="112" transform="translate(128 112)">
      <g >
        <title>Yaw and throttle</title>
        <circle r="13" class="controller-thumb"/>
        <circle r="8" class="thumb-inset"/>
        <path d="M-3-3 3 3M-3 3 3-3" class="controller-detail"/>
      </g>
    </g></g><g><circle cx="272" cy="112" r="43" class="controller-well"/><circle cx="272" cy="112" r="36" class="controller-detail"/>
    <path d="M240 112h64M272 80v64" class="gimbal-guide"/>
    <g data-pad-stick="1" data-stick-x="272" data-stick-y="112" transform="translate(272 112)">
      <g >
        <title>Roll and pitch</title>
        <circle r="13" class="controller-thumb"/>
        <circle r="8" class="thumb-inset"/>
        <path d="M-3-3 3 3M-3 3 3-3" class="controller-detail"/>
      </g>
    </g></g>
      <rect x="157" y="170" width="86" height="43" rx="4" class="controller-screen"/>
      <text x="200" y="185" class="controller-channel-label">RCFORGE</text>
      <path d="M169 194h62M169 202h39" class="screen-lines"/>
      <circle cx="122" cy="189" r="10" class="controller-well"/>
      <path d="M118 189h8M122 185v8" class="controller-detail"/>
      <circle cx="278" cy="189" r="10" class="controller-well"/>
      <path d="m275 186 4 3-4 3" class="controller-detail"/>
      <path d="M178 90v42m44-42v42M101 162h40m118 0h40" class="gimbal-guide"/>
      <circle cx="200" cy="148" r="4" class="device-led"/><text x="200" y="251" class="controller-caption">MAPPED STICKS</text></g><text x="122" y="146" font-size="16" fill="#87c8d5" text-anchor="start">LEFT STICK</text><text x="122" y="180" font-size="20" fill="#f1f2f5" text-anchor="start">↑ More power</text><text x="122" y="214" font-size="20" fill="#f1f2f5" text-anchor="start">↓ Less power</text><text x="122" y="248" font-size="20" fill="#f1f2f5" text-anchor="start">← / → Yaw</text><path d="M214 268h148" fill="none" stroke="#87c8d5" stroke-width="3" stroke-linecap="round" stroke-linejoin="round"/><text x="680" y="146" font-size="16" fill="#87c8d5" text-anchor="start">RIGHT STICK</text><text x="680" y="180" font-size="20" fill="#f1f2f5" text-anchor="start">↑ Nose down</text><text x="680" y="214" font-size="20" fill="#f1f2f5" text-anchor="start">↓ Nose up</text><text x="680" y="248" font-size="20" fill="#f1f2f5" text-anchor="start">← / → Roll</text><path d="M675 268H592" fill="none" stroke="#87c8d5" stroke-width="3" stroke-linecap="round" stroke-linejoin="round"/><rect x="32" y="453" width="231" height="30" rx="7" fill="#171b21" stroke="#87c8d5"/><text x="44" y="474" font-size="14" fill="#87c8d5" text-anchor="start">CH5 · optional shortcut</text><rect x="504" y="453" width="204" height="30" rx="7" fill="#171b21" stroke="#eac275"/><text x="516" y="474" font-size="14" fill="#eac275" text-anchor="start">CH6 · RUN / failsafe</text><text x="32" y="519" font-size="18" fill="#eac275" text-anchor="start">Reserve CH6 for RUN. On wireless setups, set receiver failsafe CH6 LOW.</text><text x="32" y="548" font-size="14" fill="#a1a5b0" text-anchor="start">An FS-i6 menu key is not a transmitted button. Other stick modes must be mapped explicitly.</text><text x="32" y="569" font-size="11" fill="#737c89" text-anchor="start">RCFORGE  /  VISUAL FIELD GUIDE</text></svg>
