<svg xmlns="http://www.w3.org/2000/svg" width="960" height="763" viewBox="0 0 960 763" role="img" aria-labelledby="title desc"><title id="title">Receiver PWM → Arduino</title><desc id="desc">One wire per channel. Each input gets its own series resistor and pulldown.</desc><defs><marker id="arrow" markerWidth="9" markerHeight="9" refX="7" refY="4" orient="auto-start-reverse"><path d="M0 0 8 4 0 8" fill="none" stroke="#b2bccb" stroke-width="1.5"/></marker></defs><style>text{font-family:Arial,Helvetica,sans-serif}.controller-shell{fill:#30343b;stroke:#9ba0ab;stroke-width:1.2}.controller-well{fill:#11141a;stroke:#555d69;stroke-width:1.2}.controller-thumb{fill:#404754;stroke:#949caa}.thumb-inset{fill:#252b34;stroke:#697181}.controller-grip{fill:#222832;stroke:#48505e}.controller-outline{fill:none;stroke:#adb4bf;stroke-width:3;stroke-linecap:round}.controller-detail,.thumb-center{fill:none;stroke:#929aa8;stroke-width:1}.gimbal-guide{stroke:#69717d;stroke-width:.6}.controller-screen{fill:#141921;stroke:#858c99}.screen-lines{stroke:#82928c;stroke-width:1.5}.device-led{fill:#b5d1a3}.controller-glyph{font-size:9px;fill:#f4f4f6;text-anchor:middle}.controller-channel-label{font-size:7px;fill:#b5bac4;text-anchor:middle}.controller-caption{display:none}.keyboard-body{fill:#101319;stroke:#414956}.keyboard-key rect{fill:#1b2028;stroke:#3b4350}.keyboard-key text{text-anchor:middle}.key-letter{font-size:12px;fill:#7e8795}.key-function{font-size:7.5px;fill:#e4e9f0}.mapped .key-letter{fill:#fff}.mapped.flight rect{fill:#273e49;stroke:#7fa7b9}.mapped.power rect{fill:#4b3e29;stroke:#d1b479}.mapped.session rect{fill:#354336;stroke:#8ab193}.mapped.view rect{fill:#3f364c;stroke:#ac97c6}</style><rect width="960" height="763" rx="16" fill="#111419"/><text x="32" y="42" font-size="26" fill="#f1f2f5" text-anchor="start">Receiver PWM → Arduino</text><text x="32" y="69" font-size="14" fill="#a1a5b0" text-anchor="start">One wire per channel. Each input gets its own series resistor and pulldown.</text><rect x="32" y="96" width="186" height="30" rx="7" fill="#171b21" stroke="#eac275"/><text x="44" y="117" font-size="14" fill="#eac275" text-anchor="start">RCF_INPUT_MODE = 2</text><text x="930" y="118" font-size="14" fill="#eac275" text-anchor="end">ALL SIX SIGNAL WIRES REQUIRED</text><rect x="32" y="149" width="240" height="482" rx="12" fill="#191c22" stroke="#3b404b"/><text x="52" y="184" font-size="21" fill="#f1f2f5" text-anchor="start">Receiver · PWM</text><text x="52" y="210" font-size="14" fill="#a1a5b0" text-anchor="start">CH1 PPM disabled</text><rect x="706" y="149" width="222" height="482" rx="12" fill="#191c22" stroke="#3b404b"/><text x="726" y="184" font-size="21" fill="#f1f2f5" text-anchor="start">Uno / Nano</text><text x="726" y="210" font-size="14" fill="#a1a5b0" text-anchor="start">Classic ATmega328P</text><text x="52" y="263" font-size="19" fill="#eac275" text-anchor="start">CH1 S</text><text x="150" y="263" font-size="14" fill="#a1a5b0" text-anchor="start">Roll</text><path d="M272 258H379" fill="none" stroke="#eac275" stroke-width="3" stroke-linecap="round" stroke-linejoin="round"/><rect x="379" y="245" width="76" height="26" rx="2" fill="#332c21" stroke="#eac275"/><text x="417" y="263" font-size="15" fill="#eac275" text-anchor="middle">1 kΩ</text><path d="M455 258H705" fill="none" stroke="#eac275" stroke-width="3" stroke-linecap="round" stroke-linejoin="round" marker-end="url(#arrow)"/><circle cx="524" cy="258" r="5" fill="#eac275"/><path d="M524 258v12" fill="none" stroke="#b2bccb" stroke-width="3" stroke-linecap="round" stroke-linejoin="round"/><rect x="514" y="270" width="20" height="16" rx="1" fill="#242a32" stroke="#b2bccb"/><path d="M524 286v7h30m-8 0h16m-13 4h10m-8 4h6" fill="none" stroke="#b2bccb" stroke-width="3" stroke-linecap="round" stroke-linejoin="round"/><text x="586" y="297" font-size="12" fill="#b2bccb" text-anchor="start">47 kΩ · GND</text><text x="726" y="263" font-size="22" fill="#eac275" text-anchor="start">D2</text><text x="52" y="315" font-size="19" fill="#eac275" text-anchor="start">CH2 S</text><text x="150" y="315" font-size="14" fill="#a1a5b0" text-anchor="start">Pitch</text><path d="M272 310H379" fill="none" stroke="#eac275" stroke-width="3" stroke-linecap="round" stroke-linejoin="round"/><rect x="379" y="297" width="76" height="26" rx="2" fill="#332c21" stroke="#eac275"/><text x="417" y="315" font-size="15" fill="#eac275" text-anchor="middle">1 kΩ</text><path d="M455 310H705" fill="none" stroke="#eac275" stroke-width="3" stroke-linecap="round" stroke-linejoin="round" marker-end="url(#arrow)"/><circle cx="524" cy="310" r="5" fill="#eac275"/><path d="M524 310v12" fill="none" stroke="#b2bccb" stroke-width="3" stroke-linecap="round" stroke-linejoin="round"/><rect x="514" y="322" width="20" height="16" rx="1" fill="#242a32" stroke="#b2bccb"/><path d="M524 338v7h30m-8 0h16m-13 4h10m-8 4h6" fill="none" stroke="#b2bccb" stroke-width="3" stroke-linecap="round" stroke-linejoin="round"/><text x="586" y="349" font-size="12" fill="#b2bccb" text-anchor="start">47 kΩ · GND</text><text x="726" y="315" font-size="22" fill="#eac275" text-anchor="start">D3</text><text x="52" y="367" font-size="19" fill="#eac275" text-anchor="start">CH3 S</text><text x="150" y="367" font-size="14" fill="#a1a5b0" text-anchor="start">Throttle</text><path d="M272 362H379" fill="none" stroke="#eac275" stroke-width="3" stroke-linecap="round" stroke-linejoin="round"/><rect x="379" y="349" width="76" height="26" rx="2" fill="#332c21" stroke="#eac275"/><text x="417" y="367" font-size="15" fill="#eac275" text-anchor="middle">1 kΩ</text><path d="M455 362H705" fill="none" stroke="#eac275" stroke-width="3" stroke-linecap="round" stroke-linejoin="round" marker-end="url(#arrow)"/><circle cx="524" cy="362" r="5" fill="#eac275"/><path d="M524 362v12" fill="none" stroke="#b2bccb" stroke-width="3" stroke-linecap="round" stroke-linejoin="round"/><rect x="514" y="374" width="20" height="16" rx="1" fill="#242a32" stroke="#b2bccb"/><path d="M524 390v7h30m-8 0h16m-13 4h10m-8 4h6" fill="none" stroke="#b2bccb" stroke-width="3" stroke-linecap="round" stroke-linejoin="round"/><text x="586" y="401" font-size="12" fill="#b2bccb" text-anchor="start">47 kΩ · GND</text><text x="726" y="367" font-size="22" fill="#eac275" text-anchor="start">D4</text><text x="52" y="419" font-size="19" fill="#eac275" text-anchor="start">CH4 S</text><text x="150" y="419" font-size="14" fill="#a1a5b0" text-anchor="start">Yaw</text><path d="M272 414H379" fill="none" stroke="#eac275" stroke-width="3" stroke-linecap="round" stroke-linejoin="round"/><rect x="379" y="401" width="76" height="26" rx="2" fill="#332c21" stroke="#eac275"/><text x="417" y="419" font-size="15" fill="#eac275" text-anchor="middle">1 kΩ</text><path d="M455 414H705" fill="none" stroke="#eac275" stroke-width="3" stroke-linecap="round" stroke-linejoin="round" marker-end="url(#arrow)"/><circle cx="524" cy="414" r="5" fill="#eac275"/><path d="M524 414v12" fill="none" stroke="#b2bccb" stroke-width="3" stroke-linecap="round" stroke-linejoin="round"/><rect x="514" y="426" width="20" height="16" rx="1" fill="#242a32" stroke="#b2bccb"/><path d="M524 442v7h30m-8 0h16m-13 4h10m-8 4h6" fill="none" stroke="#b2bccb" stroke-width="3" stroke-linecap="round" stroke-linejoin="round"/><text x="586" y="453" font-size="12" fill="#b2bccb" text-anchor="start">47 kΩ · GND</text><text x="726" y="419" font-size="22" fill="#eac275" text-anchor="start">D5</text><text x="52" y="471" font-size="19" fill="#eac275" text-anchor="start">CH5 S</text><text x="150" y="471" font-size="14" fill="#a1a5b0" text-anchor="start">Shortcut</text><path d="M272 466H379" fill="none" stroke="#eac275" stroke-width="3" stroke-linecap="round" stroke-linejoin="round"/><rect x="379" y="453" width="76" height="26" rx="2" fill="#332c21" stroke="#eac275"/><text x="417" y="471" font-size="15" fill="#eac275" text-anchor="middle">1 kΩ</text><path d="M455 466H705" fill="none" stroke="#eac275" stroke-width="3" stroke-linecap="round" stroke-linejoin="round" marker-end="url(#arrow)"/><circle cx="524" cy="466" r="5" fill="#eac275"/><path d="M524 466v12" fill="none" stroke="#b2bccb" stroke-width="3" stroke-linecap="round" stroke-linejoin="round"/><rect x="514" y="478" width="20" height="16" rx="1" fill="#242a32" stroke="#b2bccb"/><path d="M524 494v7h30m-8 0h16m-13 4h10m-8 4h6" fill="none" stroke="#b2bccb" stroke-width="3" stroke-linecap="round" stroke-linejoin="round"/><text x="586" y="505" font-size="12" fill="#b2bccb" text-anchor="start">47 kΩ · GND</text><text x="726" y="471" font-size="22" fill="#eac275" text-anchor="start">D6</text><text x="52" y="523" font-size="19" fill="#eac275" text-anchor="start">CH6 S</text><text x="150" y="523" font-size="14" fill="#a1a5b0" text-anchor="start">RUN guard</text><path d="M272 518H379" fill="none" stroke="#eac275" stroke-width="3" stroke-linecap="round" stroke-linejoin="round"/><rect x="379" y="505" width="76" height="26" rx="2" fill="#332c21" stroke="#eac275"/><text x="417" y="523" font-size="15" fill="#eac275" text-anchor="middle">1 kΩ</text><path d="M455 518H705" fill="none" stroke="#eac275" stroke-width="3" stroke-linecap="round" stroke-linejoin="round" marker-end="url(#arrow)"/><circle cx="524" cy="518" r="5" fill="#eac275"/><path d="M524 518v12" fill="none" stroke="#b2bccb" stroke-width="3" stroke-linecap="round" stroke-linejoin="round"/><rect x="514" y="530" width="20" height="16" rx="1" fill="#242a32" stroke="#b2bccb"/><path d="M524 546v7h30m-8 0h16m-13 4h10m-8 4h6" fill="none" stroke="#b2bccb" stroke-width="3" stroke-linecap="round" stroke-linejoin="round"/><text x="586" y="557" font-size="12" fill="#b2bccb" text-anchor="start">47 kΩ · GND</text><text x="726" y="523" font-size="22" fill="#eac275" text-anchor="start">D7</text><text x="52" y="580" font-size="19" fill="#b2bccb" text-anchor="start">One − pin</text><path d="M272 575H706" fill="none" stroke="#b2bccb" stroke-width="3" stroke-linecap="round" stroke-linejoin="round"/><text x="726" y="580" font-size="20" fill="#b2bccb" text-anchor="start">GND</text><text x="52" y="617" font-size="19" fill="#ed938b" text-anchor="start">One + pin</text><path d="M706 612H274" fill="none" stroke="#ed938b" stroke-width="3" stroke-linecap="round" stroke-linejoin="round" marker-end="url(#arrow)"/><text x="726" y="617" font-size="20" fill="#ed938b" text-anchor="start">5V *</text><text x="32" y="665" font-size="15" fill="#ed938b" text-anchor="start">* Bare receiver rated for 5 V only. No other supply, ESC, motor or servo attached.</text><text x="32" y="691" font-size="14" fill="#a1a5b0" text-anchor="start">Every pulldown returns to common GND. Leave D0 / RX and D1 / TX free for USB serial.</text><text x="32" y="717" font-size="15" fill="#87c8d5" text-anchor="start">USB data cable → computer → RCForge → Controllers → RC transmitter → Connect Arduino</text><text x="32" y="745" font-size="11" fill="#737c89" text-anchor="start">RCFORGE  /  VISUAL FIELD GUIDE</text></svg>
